<svg width="21" height="22" viewBox="0 0 21 22" xmlns="http://www.w3.org/2000/svg"><path d="M12.658 7.781l-5.377 5.377c-.24-.102-.504-.158-.781-.158-1.105 0-2 .895-2 2 0 .277.056.541.158.781l-4.189 4.189c-.293.293-.293.768 0 1.061.293.293.768.293 1.061 0l4.189-4.189c.24.102.504.158.781.158 1.105 0 2-.895 2-2 0-.277-.056-.541-.158-.781l5.377-5.377c.24.102.504.158.781.158 1.105 0 2-.895 2-2 0-.277-.056-.541-.158-.781l4.189-4.189c.293-.293.293-.768 0-1.061-.293-.293-.768-.293-1.061 0l-4.189 4.189c-.24-.102-.504-.158-.781-.158-1.105 0-2 .895-2 2 0 .277.056.541.158.781z" fill="#758696"/></svg>
