<svg width="21" height="21" viewBox="0 0 21 21" xmlns="http://www.w3.org/2000/svg"><g fill="#758696"><path fill-opacity=".23" d="M8 9l8.824-6.994 3.176 13.994-12-7-3.882-8-3.118 19z"/><path d="M17.289 2.594l-1.197-.422 3.176 13.994 1.109-.814-12-7 .297.32-3.882-8c-.32-.658-1.296-.516-1.415.206l-3.118 19c-.132.805.935 1.212 1.373.524l7-11-.167.185 8.824-6.994zm-15.43 16.8l2.936-17.893 10.418.824-7.679 6.087-.167.185-7 11 1.039.397.104.495 18.16-3.816c.331.164.694.056.904-.19l.121-.026-.025-.118c.075-.146.103-.32.061-.506l-3.091-13.619.056-.195c.017-.218-.108-.415-.298-.498-.247-.293-.701-.368-1.034-.109l-11.917-.943c-.275-.022-.516.184-.538.459-.009.117.023.228.083.318l-.549.08 3.882 8c.065.134.168.245.297.32l10.757 6.275-16.52 3.471z"/></g></svg>