<svg width="22" height="22" viewBox="0 0 22 22" xmlns="http://www.w3.org/2000/svg"><path d="M10 14.997c0-.551.444-.997 1-.997.552 0 1 .453 1 .997v6.006c0 .551-.444.997-1 .997-.552 0-1-.453-1-.997v-6.006zm0-14c0-.551.444-.997 1-.997.552 0 1 .453 1 .997v6.006c0 .551-.444.997-1 .997-.552 0-1-.453-1-.997v-6.006zm-10 10.003c0-.552.453-1 .997-1h6.006c.551 0 .997.444.997 1 0 .552-.453 1-.997 1h-6.006c-.551 0-.997-.444-.997-1zm14 0c0-.552.453-1 .997-1h6.006c.551 0 .997.444.997 1 0 .552-.453 1-.997 1h-6.006c-.551 0-.997-.444-.997-1z"/></svg>